<?xml version="1.0" encoding="UTF-8" standalone="no"?>
<!-- Created with Inkscape (http://www.inkscape.org/) -->

<svg
   width="3.1600001in"
   height="3.1600001in"
   viewBox="0 0 80.264004 80.264004"
   version="1.1"
   id="svg5"
   inkscape:version="1.1.2 (0a00cf5339, 2022-02-04)"
   sodipodi:docname="sticker_save_a_planet.svg"
   inkscape:export-filename="/home/cgeroux/projects/posters-and-stickers/sticker_save_a_planet.png"
   inkscape:export-xdpi="96"
   inkscape:export-ydpi="96"
   xmlns:inkscape="http://www.inkscape.org/namespaces/inkscape"
   xmlns:sodipodi="http://sodipodi.sourceforge.net/DTD/sodipodi-0.dtd"
   xmlns:xlink="http://www.w3.org/1999/xlink"
   xmlns="http://www.w3.org/2000/svg"
   xmlns:svg="http://www.w3.org/2000/svg">
  <sodipodi:namedview
     id="namedview7"
     pagecolor="#ffffff"
     bordercolor="#666666"
     borderopacity="1.0"
     inkscape:pageshadow="2"
     inkscape:pageopacity="1"
     inkscape:pagecheckerboard="0"
     inkscape:document-units="in"
     showgrid="false"
     units="in"
     inkscape:zoom="2"
     inkscape:cx="263.75"
     inkscape:cy="143.75"
     inkscape:window-width="1920"
     inkscape:window-height="976"
     inkscape:window-x="1920"
     inkscape:window-y="27"
     inkscape:window-maximized="1"
     inkscape:current-layer="layer1"
     inkscape:snap-global="false"
     showguides="true"
     inkscape:snap-bbox="true"
     inkscape:snap-bbox-edge-midpoints="true"
     inkscape:snap-text-baseline="false">
    <inkscape:grid
       type="xygrid"
       id="grid26776"
       units="in"
       spacingx="1.5875"
       spacingy="1.5875" />
  </sodipodi:namedview>
  <defs
     id="defs2" />
  <g
     inkscape:label="Layer 1"
     inkscape:groupmode="layer"
     id="layer1">
    <rect
       style="fill:#000e2e;fill-opacity:1;stroke-width:0.4;stroke-opacity:0.628035"
       id="rect12328"
       width="80.265587"
       height="80.264549"
       x="0"
       y="0" />
    <g
       id="g26777"
       transform="matrix(1,0,0,0.99966202,2.0320032,1.6468306)">
      <circle
         style="fill:#0863af;fill-opacity:1;stroke:none;stroke-width:0.774203;stroke-opacity:0.102224"
         id="path44265"
         cx="37.718998"
         cy="38.124481"
         r="21.971001" />
      <g
         id="g3"
         transform="matrix(0.1494579,0,0,0.15049502,14.526425,14.614391)">
        <linearGradient
           id="SVGID_1_"
           y2="145.46001"
           gradientUnits="userSpaceOnUse"
           x2="301.29001"
           y1="145.46001"
           x1="129.22">
          <stop
             id="stop8"
             style="stop-color:#609B2E"
             offset="0" />
          <stop
             id="stop10"
             style="stop-color:#AEC818"
             offset=".6129" />
        </linearGradient>
        <path
           id="path12"
           d="m 258.18,53.013 c 0,0 -20.436,-6.708 -25.05,-11.933 l -17.145,-1.337 -3.882,4.017 1.929,4.623 h 3.277 l 0.604,6.274 -5.523,-3.287 -3.711,6.577 -1.647,-0.607 h -2.24 c 0,0 -0.617,-0.738 -1.337,-0.445 -0.604,0.445 -1.337,-1.941 -1.337,-1.941 l -3.29,0.604 -1.336,1.337 -2.24,-1.645 h -3.589 l -0.727,2.09 2.356,0.299 -2.069,2.539 0.751,1.339 c -2.991,0.314 -7.898,-1.944 -7.898,-1.944 0,0 -1.349,-0.592 -3.302,0 -2.075,0.604 -4.657,4.321 -4.657,4.321 l -3.381,3.595 3.729,3.601 h 2.533 l 3.406,1.028 0.616,1.34 6.567,-0.312 5.371,-4.315 5.212,-1.032 5.225,2.075 c 0,0 5.652,-1.043 4.914,-0.439 -0.593,0.727 2.979,5.664 2.979,5.664 l 2.393,5.652 2.233,3.29 0.452,3.589 1.63,-0.293 5.523,0.604 -1.923,-2.997 -3.284,-2.24 -2.398,-6.256 -1.642,-4.022 2.393,-0.912 1.94,3.585 2.222,3.284 5.372,2.692 v 3.57 l 1.343,2.1 5.225,1.917 4.626,-2.387 1.349,-2.234 -1.953,-2.68 h 4.926 l 4.004,4.34 6.586,3.274 -0.452,3.58 4.017,4.022 -1.642,1.648 -8.197,-3.583 -6.714,-3.738 -12.061,0.745 0.293,5.231 7.611,4.932 8.185,3.427 6.567,3.894 -0.592,4.904 -2.387,4.629 -3.876,-2.539 -8.637,-8.957 -1.959,0.314 -7.294,-5.673 h -3.283 l -1.05,4.022 -2.229,-0.308 -0.293,-2.667 -13.27,-9.84 2.979,-3.403 4.021,-1.221 -2.38,-3.437 h -2.252 l -5.646,-3.863 -5.219,1.336 -6.879,-5.667 -4.303,0.281 -4.944,-0.58 -5.041,-1.954 -6.269,0.604 -6.557,4.624 -6.259,1.031 -2.982,1.953 -3.583,1.044 -1.965,2.533 -5.643,-0.299 -6.259,5.667 -0.613,3.274 -1.328,5.255 -5.963,6.256 -0.745,2.97 v 4.632 l 2.393,5.973 2.981,5.96 6.564,11.941 2.674,1.639 4.922,0.314 6.262,4.907 10.883,0.751 1.634,2.551 2.374,-0.299 4.206,4.929 3.723,-0.604 1.19,8.194 -2.887,4.028 -3.382,2.987 1.355,8.219 1.031,13.27 c 0,0 -1.031,4.205 -1.636,4.94 -0.751,0.604 -5.377,3.567 -5.377,3.567 l -6.554,19.534 2.035,9.854 -1.288,8.673 -4.022,5.213 -0.305,5.071 -1.041,3.278 4.019,1.221 4.272,-1.972 h 6.294 l 9.253,3 6.867,-3.589 8.947,-5.359 5.213,-0.604 0.744,-7.914 2.558,-2.972 5.938,-0.751 4.346,-3.58 h 3.577 l 12.812,-11.493 c 0,0 1.037,-3.747 1.037,-5.065 0,-1.209 1.361,-6.866 1.361,-6.866 l 4.901,-7.321 4.919,-0.299 5.353,-2.362 10.163,-7.48 4.321,-7.327 1.647,-2.96 -3.576,-1.355 -1.667,1.923 -4.754,-3.869 -0.293,1.343 -0.617,-6.4 c 0,0 1.648,-1.639 -0.727,-3.286 -2.252,-1.639 -3.881,-6.58 -3.881,-6.58 l -1.643,-4.614 -0.604,-7.315 0.604,-2.841 -0.299,-5.078 0.299,-10.144 3.876,0.897 -1.178,10.602 2.233,4.907 v 8.072 l 0.592,5.508 2.375,7.017 5.683,7.189 2.532,-1.959 h 4.022 l 13.123,-14.481 0.744,-4.327 -2.68,-3.702 -4.034,-5.237 h -1.196 l -2.68,1.92 -0.616,-4.596 -2.063,-3.589 c 0,0 -1.947,1.032 -1.648,-2.249 0.305,-3.421 0.751,-5.368 0.751,-5.368 l 2.954,-1.651 2.246,5.963 1.349,4.624 3.589,2.994 4.022,3.592 5.811,5.667 2.1,6.857 1.33,6.723 3.271,1.196 -0.274,10.293 -1.067,16.55 2.99,1.648 c 0.06,0.01 24.84,-69.92 -38.26,-139.06 z"
           fill="url(#SVGID_1_)"
           style="fill:url(#SVGID_1_)" />
        <linearGradient
           id="SVGID_2_"
           y2="19.639999"
           gradientUnits="userSpaceOnUse"
           x2="227.66"
           y1="19.639999"
           x1="159.07001">
          <stop
             id="stop15"
             style="stop-color:#609B2E"
             offset="0" />
          <stop
             id="stop17"
             style="stop-color:#AEC818"
             offset=".6129" />
        </linearGradient>
        <path
           id="path19"
           d="m 162.11,10.288 c 28.572,-2.191 65.547,18.863 65.547,18.863 h -9.229 l -17.175,-8.273 -3.51,3.412 -11.914,0.964 -4.389,-2.185 -14.955,-6.696 -2.188,2.173 -0.839,4.038 -4.388,-1.349 0.482,-6.204 2.55,-4.743 z"
           fill="url(#SVGID_2_)"
           style="fill:url(#SVGID_2_)" />
        <linearGradient
           id="SVGID_3_"
           y2="46.198002"
           gradientUnits="userSpaceOnUse"
           x2="203.46001"
           y1="46.198002"
           x1="192.53">
          <stop
             id="stop22"
             style="stop-color:#609B2E"
             offset="0" />
          <stop
             id="stop24"
             style="stop-color:#AEC818"
             offset=".6129" />
        </linearGradient>
        <polygon
           id="polygon26"
           points="197.24,39.384 197.75,45.454 193.85,49.842 192.53,53.013 203.46,52.519 202.12,48.124 200.78,44.969 199.94,40.22 "
           fill="url(#SVGID_3_)"
           style="fill:url(#SVGID_3_)" />
        <linearGradient
           id="SVGID_4_"
           y2="237.98"
           gradientUnits="userSpaceOnUse"
           x2="242.13"
           y1="237.98"
           x1="211.37">
          <stop
             id="stop29"
             style="stop-color:#609B2E"
             offset="0" />
          <stop
             id="stop31"
             style="stop-color:#AEC818"
             offset=".6129" />
        </linearGradient>
        <path
           id="path33"
           d="m 217.08,241.45 4.364,-3.895 1.343,-3.527 4.034,-3.04 7.397,-0.497 6.562,-5.228 1.343,3.534 -3.876,3.879 -3.186,0.481 -5.2,5.731 -9.748,10.94 -8.746,0.867 v -3.89 l 2.673,-3.033 c -0.836,-1.843 -0.836,-1.343 -0.836,-1.843 v 0.5 c 0,0 3.91,-0.01 3.91,-0.98 z"
           fill="url(#SVGID_4_)"
           style="fill:url(#SVGID_4_)" />
        <linearGradient
           id="SVGID_5_"
           y2="154.28999"
           gradientUnits="userSpaceOnUse"
           x2="73.802002"
           y1="154.28999"
           x1="10.722">
          <stop
             id="stop36"
             style="stop-color:#609B2E"
             offset="0" />
          <stop
             id="stop38"
             style="stop-color:#AEC818"
             offset=".6129" />
        </linearGradient>
        <path
           id="path40"
           d="m 31.999,234.51 -2.673,-18.991 -1.694,-3.033 -1.349,-4.383 0.852,-6.226 3.524,-2.185 -0.375,-7.557 4.752,-3.533 v -4.85 l 11.432,-14.987 4.367,1.33 1.834,-2.173 11.877,-22.049 6.616,-1.327 2.64,-3.04 -0.455,-3.046 -4.019,-7.544 -5.716,-3.54 v -8.386 l -8.249,-4.401 0.345,-10.943 1.834,-3.516 -1.834,-3.043 -4.876,-2.701 -1.181,-4.855 0.839,-8.414 -5.375,-7.049 -6.896,2.686 h -5.713 c 0,0 -16.803,29.932 -20.328,51.496 -3.537,21.655 0.485,1.819 0.485,1.819 l 3.04,11.932 2.191,11.444 -0.357,10.104 4.379,7.901 -2.191,7.91 -0.494,13.65 2.686,7.535 1.693,8.765 1.337,8.051 2.686,4.363"
           fill="url(#SVGID_5_)"
           style="fill:url(#SVGID_5_)" />
        <linearGradient
           id="SVGID_6_"
           y2="25.218"
           gradientUnits="userSpaceOnUse"
           x2="145.47"
           y1="25.218"
           x1="68.485001">
          <stop
             id="stop43"
             style="stop-color:#609B2E"
             offset="0" />
          <stop
             id="stop45"
             style="stop-color:#AEC818"
             offset=".6129" />
        </linearGradient>
        <path
           id="path47"
           d="m 145.47,11.137 -2.191,3.894 -6.576,0.479 -4.01,7.56 c 0,0 -6.213,7.062 -5.212,4.724 0.842,-2.176 -1.001,-2.539 -1.001,-3.888 0,-1.325 -6.961,-1.325 -6.961,-1.325 l -3.5,4.022 -14.929,1.193 c 0,0 -4.428,1.355 -5.719,2.334 l -1.346,0.842 h -1.834 c -2.188,0.366 -2.188,0.366 -2.188,0.366 l -2.179,2.194 -1.349,1.825 -0.845,2.193 c -1.691,1.834 -1.691,1.834 -1.691,1.834 l -7.553,-1.355 h -7.901 c 0.003,0 39.595,-28.736 76.985,-26.892 z"
           fill="url(#SVGID_6_)"
           style="fill:url(#SVGID_6_)" />
        <linearGradient
           id="SVGID_7_"
           y2="289.10999"
           gradientUnits="userSpaceOnUse"
           x2="123.94"
           y1="289.10999"
           x1="76.877998">
          <stop
             id="stop50"
             style="stop-color:#609B2E"
             offset="0" />
          <stop
             id="stop52"
             style="stop-color:#AEC818"
             offset=".6129" />
        </linearGradient>
        <path
           id="path54"
           d="m 76.878,279.43 40.863,12.787 6.201,6.57 c 0,-0.01 -29.081,-6.58 -47.062,-19.36 z"
           fill="url(#SVGID_7_)"
           style="fill:url(#SVGID_7_)" />
      </g>
    </g>
    <text
       xml:space="preserve"
       style="font-style:normal;font-variant:normal;font-weight:bold;font-stretch:normal;font-size:8.81944px;line-height:1.25;font-family:sans-serif;-inkscape-font-specification:'sans-serif, Bold';font-variant-ligatures:normal;font-variant-caps:normal;font-variant-numeric:normal;font-variant-east-asian:normal;fill:#ffffec;fill-opacity:1;stroke:none;stroke-width:0.264583;stroke-opacity:0.929974"
       id="text21598"><textPath
         xlink:href="#ellipse13726"
         id="textPath20800"
         style="font-style:normal;font-variant:normal;font-weight:bold;font-stretch:normal;font-size:10.5833px;font-family:sans-serif;-inkscape-font-specification:'sans-serif, Bold';font-variant-ligatures:normal;font-variant-caps:normal;font-variant-numeric:normal;font-variant-east-asian:normal">Save a Planet</textPath></text>
    <text
       xml:space="preserve"
       style="font-style:normal;font-variant:normal;font-weight:bold;font-stretch:normal;font-size:8.81944px;line-height:1.25;font-family:sans-serif;-inkscape-font-specification:'sans-serif, Bold';font-variant-ligatures:normal;font-variant-caps:normal;font-variant-numeric:normal;font-variant-east-asian:normal;fill:#fffffd;fill-opacity:1;stroke:none;stroke-width:0.264583;stroke-opacity:0.929974"
       id="text22592"><textPath
         xlink:href="#path1167"
         id="textPath21038">Ride a Bike</textPath></text>
    <path
       id="path26774"
       style="fill:none;stroke:none;stroke-width:0.254;stroke-miterlimit:4;stroke-dasharray:none;stroke-opacity:0.929974"
       sodipodi:type="arc"
       sodipodi:cx="39.49313"
       sodipodi:cy="38.246365"
       sodipodi:rx="26.729771"
       sodipodi:ry="25.302605"
       sodipodi:start="3.1405585"
       sodipodi:end="0.020907554"
       sodipodi:open="true"
       sodipodi:arc-type="arc"
       d="m 12.763373,38.272531 a 26.729771,25.302605 0 0 1 13.510502,-22.017879 26.729771,25.302605 0 0 1 26.89757,0.253011 26.729771,25.302605 0 0 1 13.045613,22.267679" />
    <path
       style="display:inline;fill:none;stroke:none;stroke-width:0.264583;stroke-opacity:0.929974"
       id="path28671"
       sodipodi:type="arc"
       sodipodi:cx="-39.57774"
       sodipodi:cy="40.305923"
       sodipodi:rx="33.990189"
       sodipodi:ry="33.756817"
       sodipodi:start="0.57997671"
       sodipodi:end="2.5741898"
       sodipodi:arc-type="arc"
       d="M -11.145783,58.80481 A 33.990189,33.756817 0 0 1 -39.791432,74.062073 33.990189,33.756817 0 0 1 -68.241653,58.448312"
       sodipodi:open="true"
       transform="scale(-1,1)" />
    <rect
       style="fill:none;fill-opacity:1;stroke:none;stroke-width:0.365001;stroke-miterlimit:4;stroke-dasharray:none;stroke-opacity:0.929974"
       id="rect53279"
       width="69.849991"
       height="69.849998"
       x="4.8260002"
       y="4.8260002"
       ry="4.7683717e-08" />
    <circle
       style="fill:none;stroke-width:0.4;stroke-opacity:0.628035"
       id="path1098"
       cx="46.272713"
       cy="48.956112"
       r="9.4795198" />
    <ellipse
       style="display:none;fill:none;fill-opacity:1;stroke:#ff01fe;stroke-width:0.254;stroke-miterlimit:4;stroke-dasharray:none;stroke-opacity:1"
       id="path15892"
       cx="40.132"
       cy="40.132004"
       rx="26.470757"
       ry="26.470758" />
    <text
       xml:space="preserve"
       style="font-style:normal;font-variant:normal;font-weight:normal;font-stretch:normal;font-size:5.29167px;line-height:1.25;font-family:sans-serif;-inkscape-font-specification:'sans-serif, Normal';font-variant-ligatures:normal;font-variant-caps:normal;font-variant-numeric:normal;font-variant-east-asian:normal;display:inline;fill:#ffffff;fill-opacity:1;stroke:none;stroke-width:0.264583"
       id="text3473"><textPath
         xlink:href="#path2094"
         id="textPath21036"
         style="font-style:normal;font-variant:normal;font-weight:normal;font-stretch:normal;font-size:4.93889px;font-family:sans-serif;-inkscape-font-specification:'sans-serif, Normal';font-variant-ligatures:normal;font-variant-caps:normal;font-variant-numeric:normal;font-variant-east-asian:normal">carsruincities.ca</textPath></text>
    <ellipse
       style="display:none;fill:none;stroke:#ff01fe;stroke-width:0.254;stroke-miterlimit:4;stroke-dasharray:none;stroke-opacity:1"
       id="ellipse13827"
       cy="40.132004"
       cx="40.132004"
       rx="37.871403"
       ry="37.883678"
       inkscape:label="trim-line" />
    <path
       d="m 6.7311726,52.562627 c -0.015429,0.247801 0.068828,0.497318 0.2209817,0.692186 0.1591898,0.199607 0.3195402,0.398214 0.4780017,0.59832 0.088309,-0.06813 0.1748028,-0.138553 0.2621611,-0.207711 -0.4414048,-0.579461 -0.6867017,-0.738223 -0.6228815,-1.125685 0.048522,-0.323753 0.3523625,-0.612414 0.7434439,-0.565156 0.2511033,-0.261871 0.5016114,-0.524221 0.7526347,-0.786049 0.7450724,1.657866 1.4905628,3.315524 2.2352498,4.973649 -0.170547,0.191503 -0.339236,0.384619 -0.510461,0.575469 -0.3247773,-0.29183 -0.6612482,-0.570611 -1.0108656,-0.832197 -0.1762511,-0.1322 -0.4102555,0.0594 -0.3159268,0.261866 0.2983262,0.666164 0.6065019,1.32807 0.9273918,1.983716 0.1130916,0.222716 0.4593016,0.20058 0.5379746,-0.04658 0.01944,-0.05512 0.01455,-0.01387 0.01897,-1.047753 0.175882,-0.195694 0.350831,-0.392199 0.527535,-0.587119 0.570126,0.0594 1.140474,0.116525 1.710661,0.175426 -0.103511,2.496125 2.607295,4.039898 4.616119,2.905215 -0.02135,-0.03788 -0.04166,-0.07629 -0.06226,-0.114467 1.081142,-0.568584 1.712191,-1.744191 1.596069,-2.951851 -0.174935,-1.885639 -2.045852,-3.145455 -3.864675,-2.599506 -0.0655,-0.177172 -0.131336,-0.354281 -0.196519,-0.531596 0.260288,-0.152744 0.437611,-0.436238 0.459143,-0.737369 0.01148,-0.04284 -0.107709,-0.01714 0.771152,-0.124702 0.04101,0.09053 0.08084,0.181756 0.122987,0.271856 0.100831,-0.04867 0.203711,-0.09279 0.305876,-0.138739 -0.116575,-0.260228 -0.233605,-0.520241 -0.350503,-0.780318 -0.102797,0.04494 -0.205048,0.09085 -0.306816,0.137899 0.02785,0.06274 0.05613,0.125383 0.08429,0.187995 -0.221235,0.02864 -0.442436,0.05728 -0.663762,0.08573 -0.238885,-0.726512 -1.170009,-0.862443 -1.61405,-0.313759 -1.325827,-0.611115 -2.651542,-1.222557 -3.977214,-1.834108 0.1129644,-0.11692 0.2262637,-0.233519 0.3394515,-0.350156 1.5134595,0.811428 3.3845565,0.256558 4.2250245,-1.217303 -0.03889,-0.02197 -0.07749,-0.04447 -0.116854,-0.06549 1.252408,-2.208738 -0.610739,-4.877523 -3.104307,-4.465732 -1.9681258,0.321236 -3.0945022,2.43748 -2.248302,4.250348 -0.039965,0.01965 -0.080139,0.03894 -0.1204122,0.05792 0.2484264,0.535454 0.611106,0.938857 1.0683471,1.262664 -0.6576246,0.685366 -1.3155023,1.370368 -1.9723075,2.056493 -0.5232906,0.03119 -0.9184468,0.450888 -0.9451969,0.946539 m 2.0837321,-1.652569 c 0.1812294,-0.188229 0.3626797,-0.37618 0.5439064,-0.564405 1.351759,0.621654 2.703347,1.243773 4.054931,1.865689 -0.02796,0.08203 -0.04471,0.167666 -0.04881,0.254168 -0.24713,0.03137 -0.494359,0.06207 -0.741447,0.09384 -0.03384,-0.07287 -0.06601,-0.146473 -0.09909,-0.219573 -0.0999,0.04616 -0.2022,0.08709 -0.299716,0.138518 0.0022,0.01441 -0.02422,-0.0449 0.347643,0.78161 0.101847,-0.04452 0.20276,-0.09112 0.304133,-0.136708 -0.03581,-0.08002 -0.07176,-0.159919 -0.107675,-0.239825 0.212261,-0.02621 0.424564,-0.05242 0.636944,-0.07831 0.03191,0.09812 0.07768,0.191744 0.137703,0.275782 -0.832504,0.930438 -1.66569,1.86013 -2.498508,2.790219 C 10.302126,54.218279 9.559428,52.56552 8.8164291,50.912815 m 4.9712869,2.394933 c 0.195959,0.129163 0.441442,0.181017 0.672608,0.139371 0.05255,0.133836 0.104532,0.268017 0.156608,0.402056 -1.052382,0.446799 -1.739692,1.392993 -1.900543,2.439332 -0.489646,-0.04843 -0.979252,-0.09781 -1.468856,-0.146333 0.846042,-0.945433 1.693205,-1.889853 2.540182,-2.834465 M 8.9101346,47.039144 c -0.05207,-1.949938 2.0435504,-3.227218 3.7515514,-2.278314 0.773363,0.426073 1.261384,1.23171 1.295937,2.099476 0.08063,1.878479 -1.869443,3.174348 -3.55547,2.407131 1.01912,-1.069905 1.013197,-1.056676 1.095153,-1.167392 0.264485,-0.361359 0.287952,-0.836631 0.0922,-1.216566 -0.07976,-0.155283 -0.320965,-0.09071 -0.310576,0.08522 0.0018,0.08032 0.144517,0.245349 0.100231,0.562734 -0.02182,0.156531 -0.08804,0.307107 -0.190748,0.427396 -0.365437,0.380837 -0.731387,0.761142 -1.096789,1.142035 C 9.3908457,48.667385 8.9318272,47.890823 8.9101321,47.03916 m 4.3992739,9.648203 c 0.732578,0.0739 1.465109,0.147905 2.197682,0.221789 0.120438,0.242148 0.455348,0.270933 0.611901,0.05753 0.144419,-0.187126 0.0716,-0.487916 -0.201855,-0.564604 -0.258201,-0.692928 -0.51633,-1.385885 -0.774299,-2.078915 1.833519,-0.515683 3.574662,1.110737 3.153109,2.977979 -0.284169,1.272323 -1.493562,2.109228 -2.765457,1.954679 -1.297927,-0.154296 -2.260093,-1.275555 -2.22108,-2.568455 m 1.522368,-2.249476 c 0.253449,0.682336 0.506626,1.364725 0.759999,2.047099 -0.02479,0.02996 -0.04973,0.05977 -0.07474,0.08951 -0.725457,-0.07368 -1.450872,-0.147265 -2.176363,-0.221024 0.137924,-0.873163 0.735722,-1.598826 1.4911,-1.915551 z"
       id="path1229"
       style="display:inline;fill:#fffff5;fill-opacity:1;stroke-width:0.00865649"
       inkscape:label="bikeL" />
    <path
       id="path2094"
       style="display:none;fill:none;stroke:#fffffe;stroke-width:0.254;stroke-miterlimit:4;stroke-dasharray:none"
       d="m 22.169486,59.572013 c 6.221937,5.786077 13.662347,7.207824 19.03115,7.005276 5.060609,-0.19092 11.949122,-2.065444 17.481646,-7.567431"
       sodipodi:nodetypes="csc" />
    <path
       id="ellipse13726"
       style="display:none;fill:none;stroke:#fffffe;stroke-width:0.254;stroke-miterlimit:4;stroke-dasharray:none"
       d="M 13.665504,39.76248 C 14.132418,23.409099 26.329151,13.814176 40.666861,13.659539 52.981186,13.526724 66.168856,23.56609 66.596559,39.631441"
       sodipodi:nodetypes="csc" />
    <path
       d="m 73.552596,52.353412 c 0.01875,0.245085 -0.06114,0.493261 -0.209059,0.688294 -0.154786,0.199819 -0.310737,0.398662 -0.464795,0.598971 -0.08839,-0.0662 -0.174979,-0.13471 -0.262422,-0.201948 0.428833,-0.579787 0.669426,-0.740385 0.600827,-1.123036 -0.05257,-0.319806 -0.35738,-0.601296 -0.743853,-0.549039 -0.25223,-0.255709 -0.503885,-0.511901 -0.756037,-0.767573 -0.714334,1.651558 -1.429084,3.302913 -2.14303,4.954722 0.171507,0.187181 0.341195,0.375983 0.513364,0.56251 0.317411,-0.293431 0.646581,-0.574109 0.989004,-0.837948 0.172618,-0.133333 0.406949,0.05301 0.316404,0.254796 -0.285986,0.663614 -0.581782,1.32315 -0.890249,1.976669 -0.108818,0.222054 -0.451856,0.204987 -0.533194,-0.03854 -0.02003,-0.05432 -0.01461,-0.01351 -0.03344,-1.036907 -0.176845,-0.191255 -0.352781,-0.383327 -0.530428,-0.573807 -0.56354,0.06679 -1.127325,0.131323 -1.690931,0.197613 0.137419,2.469465 -2.524395,4.035606 -4.528821,2.940515 0.0206,-0.0378 0.04017,-0.0761 0.06003,-0.114184 -1.078186,-0.547701 -1.719324,-1.702602 -1.621287,-2.899689 0.146772,-1.869043 1.981143,-3.142336 3.789246,-2.627373 0.06234,-0.1763 0.125047,-0.352536 0.187087,-0.528977 -0.259795,-0.147554 -0.439299,-0.425704 -0.464829,-0.723493 -0.01196,-0.04223 0.106383,-0.01847 -0.76511,-0.112642 -0.03933,0.09015 -0.07746,0.181055 -0.11794,0.270834 -0.10049,-0.04677 -0.20295,-0.08901 -0.304725,-0.133055 0.111753,-0.259228 0.223959,-0.51826 0.336031,-0.777347 0.102388,0.04307 0.204248,0.08711 0.30565,0.132215 -0.02666,0.06249 -0.05384,0.124903 -0.0808,0.187276 0.21939,0.02535 0.438769,0.0505 0.658247,0.07569 0.2263,-0.722517 1.146114,-0.870119 1.59336,-0.333192 1.303875,-0.62351 2.607641,-1.247339 3.911359,-1.871278 -0.113459,-0.114159 -0.227246,-0.227994 -0.340924,-0.341865 -1.486815,0.824423 -3.346786,0.301358 -4.199405,-1.145846 0.03819,-0.02229 0.07607,-0.0451 0.114757,-0.0665 -1.270686,-2.168893 0.536248,-4.836816 3.010425,-4.464102 1.952747,0.290441 3.097382,2.369533 2.285115,4.175941 0.03983,0.01889 0.07987,0.03743 0.120008,0.05563 -0.238421,0.533526 -0.59179,0.937937 -1.039878,1.264874 0.660581,0.669235 1.321406,1.338107 1.981189,2.008106 0.518448,0.02339 0.915483,0.433471 0.948904,0.923742 m -2.085848,-1.606664 c -0.18203,-0.183789 -0.364281,-0.3673 -0.546314,-0.55109 -1.329402,0.634307 -2.658627,1.269071 -3.987856,1.903632 0.02882,0.08078 0.0466,0.165345 0.05185,0.250917 0.245058,0.02773 0.49024,0.05448 0.735263,0.08264 0.03247,-0.0726 0.0633,-0.145914 0.09502,-0.218741 0.09953,0.04432 0.201381,0.08337 0.298633,0.132925 -0.0016,0.0143 0.02335,-0.04479 -0.333193,0.778579 -0.101442,-0.04264 -0.201985,-0.08738 -0.302978,-0.131067 0.03433,-0.07972 0.06879,-0.159309 0.103197,-0.238912 -0.210483,-0.02303 -0.421016,-0.04592 -0.631613,-0.06859 -0.0302,0.09757 -0.07419,0.190894 -0.132451,0.274928 0.837139,0.909313 1.674929,1.81795 2.512362,2.726983 0.71229,-1.646457 1.424343,-3.292924 2.136696,-4.939341 m -4.887548,2.440359 c -0.192167,0.130604 -0.434443,0.185371 -0.663862,0.14738 -0.05014,0.13322 -0.09973,0.266775 -0.149397,0.400189 1.048014,0.427554 1.741632,1.354568 1.915512,2.388083 0.484022,-0.0548 0.967991,-0.110526 1.451973,-0.165419 -0.850724,-0.924095 -1.702557,-1.847109 -2.554212,-2.770323 m 4.740546,-6.273585 c 0.02426,-1.930977 -2.068104,-3.166011 -3.745571,-2.202775 -0.759585,0.432601 -1.231397,1.236934 -1.253448,2.096426 -0.05353,1.86063 1.895012,3.116108 3.553273,2.33303 -1.023808,-1.044832 -1.017762,-1.031819 -1.100439,-1.140271 -0.266876,-0.354003 -0.296764,-0.824148 -0.108306,-1.202986 0.07679,-0.154834 0.316452,-0.09426 0.308628,0.07999 1.37e-4,0.07953 -0.139618,0.244894 -0.09133,0.558452 0.0238,0.154643 0.09144,0.302776 0.19481,0.420407 0.36708,0.371877 0.734657,0.743215 1.101702,1.115143 0.687631,-0.438899 1.131135,-1.214043 1.140688,-2.057409 m -4.219744,9.612373 c -0.72414,0.08341 -1.448243,0.166929 -2.17238,0.250321 -0.115828,0.241393 -0.446958,0.274575 -0.604918,0.06552 -0.145579,-0.183219 -0.07771,-0.481987 0.191916,-0.561731 0.245887,-0.689546 0.491705,-1.379118 0.737364,-2.068762 -1.822223,-0.484798 -3.523006,1.149576 -3.079564,2.992058 0.299115,1.255493 1.508012,2.067009 2.764901,1.896216 1.282656,-0.170917 2.219406,-1.294326 2.162682,-2.573622 m -1.538462,-2.205441 c -0.241333,0.678993 -0.482397,1.358033 -0.723655,2.037067 0.02496,0.02932 0.05008,0.05847 0.07525,0.08754 0.717097,-0.08309 1.434154,-0.166094 2.15129,-0.249267 -0.14876,-0.862414 -0.750682,-1.572379 -1.502868,-1.875329 z"
       id="path26544"
       style="fill:#fffff5;fill-opacity:1;stroke-width:0.00856993"
       inkscape:label="bikeR" />
    <circle
       style="display:none;fill:none;stroke:#ff01fe;stroke-width:0.254;stroke-miterlimit:4;stroke-dasharray:none;stroke-opacity:1"
       id="circle21040"
       cy="40.132"
       cx="40.132"
       r="35.863213"
       inkscape:label="safety-line" />
    <path
       id="path1167"
       style="display:none;fill:none;stroke:#fffffe;stroke-width:0.254;stroke-miterlimit:4;stroke-dasharray:none"
       d="m 15.514597,66.213485 c 6.924559,6.476816 15.043432,9.741819 24.683545,9.749435 9.675449,0.0076 18.335021,-3.804856 24.780699,-10.015627"
       sodipodi:nodetypes="csc" />
  </g>
</svg>
